<svg xmlns="http://www.w3.org/2000/svg" xmlns:xlink="http://www.w3.org/1999/xlink" width="500" zoomAndPan="magnify" viewBox="0 0 375 374.999991" height="500" preserveAspectRatio="xMidYMid meet" version="1.0"><defs><clipPath id="4797b99835"><path d="M 15.785156 15.785156 L 188 15.785156 L 188 188 L 15.785156 188 Z M 15.785156 15.785156 " clip-rule="nonzero"/></clipPath><clipPath id="4f203847cb"><path d="M 187 15.785156 L 359.285156 15.785156 L 359.285156 188 L 187 188 Z M 187 15.785156 " clip-rule="nonzero"/></clipPath><clipPath id="935a6d9809"><path d="M 15.785156 187 L 188 187 L 188 359.285156 L 15.785156 359.285156 Z M 15.785156 187 " clip-rule="nonzero"/></clipPath><clipPath id="0664f0de32"><path d="M 187 187 L 359.285156 187 L 359.285156 359.285156 L 187 359.285156 Z M 187 187 " clip-rule="nonzero"/></clipPath></defs><g clip-path="url(#4797b99835)"><path fill="#a6a6a6" d="M 15.785156 15.785156 L 101.648438 15.785156 L 187.507812 101.648438 L 187.507812 187.507812 L 101.648438 187.507812 L 15.785156 101.648438 Z M 15.785156 15.785156 " fill-opacity="1" fill-rule="evenodd"/></g><g clip-path="url(#4f203847cb)"><path fill="#626262" d="M 187.507812 15.785156 L 273.34375 15.785156 L 359.203125 101.648438 L 359.203125 187.507812 L 273.34375 187.507812 L 187.507812 101.648438 Z M 187.507812 15.785156 " fill-opacity="1" fill-rule="evenodd"/></g><g clip-path="url(#935a6d9809)"><path fill="#626262" d="M 15.785156 187.507812 L 101.648438 187.507812 L 187.507812 273.34375 L 187.507812 359.203125 L 101.648438 359.203125 L 15.785156 273.34375 Z M 15.785156 187.507812 " fill-opacity="1" fill-rule="evenodd"/></g><g clip-path="url(#0664f0de32)"><path fill="#626262" d="M 187.507812 187.507812 L 273.34375 187.507812 L 359.203125 273.34375 L 359.203125 359.203125 L 273.34375 359.203125 L 187.507812 273.34375 Z M 187.507812 187.507812 " fill-opacity="1" fill-rule="evenodd"/></g></svg>